# xmcd CD database file
# Copyright (C) 1993-1998 Ti Kan
#
# Track frame offsets:
#	150
#	10800
#	20547
#	29517
#	40300
#	53027
#	61147
#	70545
#	81455
#	89795
#	101320
#	111377
#	124912
#	139242
#	150647
#	161402
#	171582
#	183575
#	197892
#	211127
#
# Disc length: 3017 seconds
#
# Revision: 1
# Processed by: cddbd v1.4b41PL1 Copyright (c) Steve Scherf et al.
# Submitted via: CDValet v3.31 - Copyright (c) 1997 Greg Leichner
#
DISCID=1c0bc714
DTITLE=Statler Brothers - The World Of The Statler Brothers
DYEAR=1900
DGENRE=
TTITLE0=Flowers On The Wall
TTITLE1=King Of The Road
TTITLE2=Memphis
TTITLE3=I'm Not Quite Through Crying
TTITLE4=My Reward
TTITLE5=This Ole House
TTITLE6=Billy Christian
TTITLE7=Quite A Long, Long Time
TTITLE8=The Whiffenpoof Song
TTITLE9=I Still Miss Someone
TTITLE10=Ruthless
TTITLE11=Green, Green Grass Of Home
TTITLE12=Release Me
TTITLE13=Walking In The Sunshine
TTITLE14=Ruby, Don't Take Your Love To Town
TTITLE15=You Can't Have Your Kate And Edith, Too
TTITLE16=There Goes My Everything
TTITLE17=Almost Persuaded
TTITLE18=I Can't Help It
TTITLE19=Shenandoah
EXTD=
EXTT0=
EXTT1=
EXTT2=
EXTT3=
EXTT4=
EXTT5=
EXTT6=
EXTT7=
EXTT8=
EXTT9=
EXTT10=
EXTT11=
EXTT12=
EXTT13=
EXTT14=
EXTT15=
EXTT16=
EXTT17=
EXTT18=
EXTT19=
PLAYORDER=
